<svg xmlns="http://www.w3.org/2000/svg" version="1.1" xmlns:xlink="http://www.w3.org/1999/xlink" xmlns:svgjs="http://svgjs.dev/svgjs" width="2000" height="3647" viewBox="0 0 2000 3647"><g transform="matrix(1,0,0,1,-5.57809833621593,-5.882258064516236)"><svg viewBox="0 0 136 248" data-background-color="#1a0202" preserveAspectRatio="xMidYMid meet" height="3647" width="2000" xmlns="http://www.w3.org/2000/svg" xmlns:xlink="http://www.w3.org/1999/xlink"><g id="tight-bounds" transform="matrix(1,0,0,1,0.37931068686268077,0.4000000000000057)"><svg viewBox="0 0 135.24137862627464 247.2" height="247.2" width="135.24137862627464"><g><svg viewBox="0 0 397.4975999999999 726.5631844195781" height="247.2" width="135.24137862627464"><g><rect width="397.4975999999999" height="22.263005408399465" x="0" y="399.14990447015566" fill="#c9efc7" opacity="1" stroke-width="0" stroke="transparent" fill-opacity="1" class="rect-yte-0" data-fill-palette-color="secondary" rx="1%" id="yte-0" data-palette-color="#c9efc7"></rect></g><g transform="matrix(1,0,0,1,0.9887999999999693,479.6930287487108)"><svg viewBox="0 0 395.52 246.8701556708673" height="246.8701556708673" width="395.52"><g id="textblocktransform"><svg viewBox="0 0 395.52 246.8701556708673" height="246.8701556708673" width="395.52" id="textblock"><g><svg viewBox="0 0 395.52 246.8701556708673" height="246.8701556708673" width="395.52"><g transform="matrix(1,0,0,1,0,0)"><svg width="395.52" viewBox="0 -39.1 67.45 42.1" height="246.8701556708673" data-palette-color="#01e4b6"><path d="M25.95-33.3L25.95-33.3Q24.9-33.3 23.05-31.8 21.2-30.3 20.05-29.03 18.9-27.75 18.7-27.45L18.7-27.45Q18.15-26.7 17.75-26.7L17.75-26.7Q17.4-26.7 17.4-27.25L17.4-27.25Q17.4-27.4 17.5-27.8L17.5-27.8Q18.65-31.25 22.33-34.73 26-38.2 29.25-38.2L29.25-38.2Q32.15-38.2 32.15-33.75L32.15-33.75Q32.15-31.2 31.05-27.53 29.95-23.85 29.2-22.13 28.45-20.4 27.95-19.4L27.95-19.4Q26.6-16.75 24.95-14.13 23.3-11.5 20.93-8.6 18.55-5.7 16.03-3.53 13.5-1.35 10.4 0.08 7.3 1.5 4.3 1.5L4.3 1.5Q0 1.5 0-4.55L0-4.55Q0-9.5 1.95-14.68 3.9-19.85 6.7-23.68 9.5-27.5 12.48-30.2 15.45-32.9 17.7-33.6L17.7-33.6Q17.95-33.7 18.35-33.7 18.75-33.7 18.75-33.45L18.75-33.45Q18.75-33.15 18.35-32.7L18.35-32.7Q16.9-31.3 14.93-28.68 12.95-26.05 10.63-22.3 8.3-18.55 6.7-13.9 5.1-9.25 5.1-5.15L5.1-5.15Q5.1-0.85 7.95-0.85L7.95-0.85Q14-0.85 21.2-13.35L21.2-13.35Q27.1-23.5 27.1-31.75L27.1-31.75Q27.1-33.3 25.95-33.3ZM67-37.1L67-37.1Q64.4-33.35 61.2-27.6 58-21.85 56.1-17.95L56.1-17.95 54.2-14.05Q49.05-3.35 49.05 1.3L49.05 1.3Q49.05 1.4 49.07 1.7 49.1 2 49.1 2.2L49.1 2.2Q49.1 3 48.65 3L48.65 3Q47.8 3 46.8 1.53 45.8 0.05 45.8-2.4L45.8-2.4Q45.8-4.65 46.87-7.9 47.95-11.15 50.05-15.33 52.15-19.5 53.57-22.05 55-24.6 57.35-28.7L57.35-28.7Q57.5-29 57.5-29.15L57.5-29.15Q57.4-29.4 57.25-29.4L57.25-29.4Q56.95-29.4 56.65-29.15L56.65-29.15Q53.7-26.75 48.9-21 44.1-15.25 40.8-10.7L40.8-10.7 37.45-6.15Q36.65-4.95 36.15-4.95L36.15-4.95Q36-4.95 35.9-5.05 35.8-5.15 35.75-5.33 35.7-5.5 35.67-5.65 35.65-5.8 35.65-5.9L35.65-5.9 35.65-6Q36-9.1 36.67-14.65 37.35-20.2 37.8-24 38.25-27.8 38.25-27.9L38.25-27.9Q38.25-28.4 38.05-28.4L38.05-28.4Q37.95-28.4 37.77-28.25 37.6-28.1 37.5-27.95L37.5-27.95 37.4-27.8Q35.25-24.6 32.8-19.53 30.35-14.45 28.85-10.55L28.85-10.55Q27.75-7.75 26.6-5.43 25.45-3.1 24.57-1.83 23.7-0.55 22.97 0.33 22.25 1.2 21.85 1.5L21.85 1.5 21.45 1.8Q20.9 2.25 20.6 2.25 20.3 2.25 20.3 1.75L20.3 1.75 20.35 1.3Q20.85-1.35 24.72-8.8 28.6-16.25 32.25-22.4L32.25-22.4 35.9-28.5 38.65-33.25Q40.7-39.1 41.8-39.1L41.8-39.1Q42.55-39.1 42.55-36.55L42.55-36.55Q41-17.95 41-15.3L41-15.3Q41-14.55 41.3-14.55 41.6-14.55 42-15.1L42-15.1Q42.65-15.95 43.8-17.4 44.95-18.85 48.2-22.6 51.45-26.35 54.32-29.35 57.2-32.35 60.6-35.1 64-37.85 66.2-38.45L66.2-38.45Q66.7-38.55 66.85-38.55L66.85-38.55Q67.45-38.55 67.45-38.1L67.45-38.1Q67.45-37.7 67-37.1Z" opacity="1" transform="matrix(1,0,0,1,0,0)" fill="#01e4b6" class="wordmark-text-0" data-fill-palette-color="primary" id="text-0"></path></svg></g></svg></g></svg></g></svg></g><g transform="matrix(1,0,0,1,20.31390719999996,0)"><svg viewBox="0 0 356.8697856 340.8697856" height="340.8697856" width="356.8697856"><g><svg xmlns="http://www.w3.org/2000/svg" xmlns:xlink="http://www.w3.org/1999/xlink" version="1.1" x="8" y="0" viewBox="0 0 62 62" style="enable-background:new 0 0 62 62;" xml:space="preserve" height="340.8697856" width="340.8697856" class="icon-icon-0" data-fill-palette-color="accent" id="icon-0"><g fill="#00f2d3" data-fill-palette-color="accent"><circle cx="11" cy="43" r="1.0" fill="#00f2d3" data-fill-palette-color="accent"></circle><circle cx="15" cy="43" r="1.0" fill="#00f2d3" data-fill-palette-color="accent"></circle><polygon points="41,42.943 48.766,30 46,30 46,10 44,10 44,32 45.234,32 41,39.057 36.766,32 38,32 38,24 36,24 36,30 33.234,30     " fill="#00f2d3" data-fill-palette-color="accent"></polygon><rect x="36" y="12" width="2" height="10" fill="#00f2d3" data-fill-palette-color="accent"></rect><path d="M60 22H48V24H60V46H22V24H34V22H30V18.46A5.98 5.98 0 0 0 32 14 6.006 6.006 0 0 0 25.8 8.004C24.872 3.376 20.825 0 16 0S7.128 3.376 6.2 8.004A6.006 6.006 0 0 0 0 14C0 15.771 0.776 17.36 2 18.46V62H54V56H46V54H60C61.103 54 62 53.103 62 52V24C62 22.897 61.103 22 60 22M22 54H24V56H12V48H20V52C20 53.103 20.897 54 22 54M10 46V56H8V20H10V30H20V32H10V40H20V46zM20 38H12V34H20zM20 28H12V20H20zM22 20H24V22H22zM28 22H26V20C26.702 20 27.373 19.872 28 19.65zM6 10C6.272 10 6.553 10.03 6.835 10.091L7.931 10.326 8.04 9.211C8.442 5.1 11.864 2 16 2S23.558 5.1 23.96 9.211L24.069 10.326 25.165 10.091C27.731 9.538 30 11.521 30 14 30 16.206 28.206 18 26 18H6C3.794 18 2 16.206 2 14S3.794 10 6 10M4 19.65C4.627 19.872 5.298 20 6 20V58H26V54H28V60H4zM30 56V54H36V56zM52 60H30V58H52zM44 56H38V54H44zM56 52V50H54V52H52V50H50V52H48V50H46V52H22V48H60V52z" fill="#00f2d3" data-fill-palette-color="accent"></path><rect x="44" width="2" height="8" fill="#00f2d3" data-fill-palette-color="accent"></rect></g></svg></g></svg></g><g></g></svg></g><defs></defs></svg><rect width="135.24137862627464" height="247.2" fill="none" stroke="none" visibility="hidden"></rect></g></svg></g></svg>